<?xml version="1.0" encoding="utf-8"?>
<!-- Generator: Adobe Illustrator 24.0.3, SVG Export Plug-In . SVG Version: 6.00 Build 0)  -->
<svg version="1.1" id="Capa_1" xmlns="http://www.w3.org/2000/svg" xmlns:xlink="http://www.w3.org/1999/xlink" x="0px" y="0px"
	 viewBox="0 0 24 24" style="enable-background:new 0 0 24 24;" xml:space="preserve">
<style type="text/css">
	.st0{fill:none;stroke:#3C5CF9;}
</style>
<g>
	<path class="st0" d="M2.3,6.9l8.8-4.4c0.6-0.3,1.2-0.3,1.8,0l8.8,4.4C21.9,6.9,22,7.1,22,7.3v9.1c0,0.4-0.2,0.7-0.6,0.9l-8.6,4.3
		c-0.6,0.3-1.2,0.3-1.8,0l-8.6-4.3C2.2,17.1,2,16.8,2,16.4V7.3C2,7.1,2.1,6.9,2.3,6.9z"/>
	<path class="st0" d="M2,7l9.6,4.8c0.3,0.1,0.6,0.1,0.9,0L22,7l0,0"/>
</g>
</svg>
