<?xml version="1.0" encoding="utf-8"?>
<!-- Generator: Adobe Illustrator 24.0.3, SVG Export Plug-In . SVG Version: 6.00 Build 0)  -->
<svg version="1.1" id="Capa_1" xmlns="http://www.w3.org/2000/svg" xmlns:xlink="http://www.w3.org/1999/xlink" x="0px" y="0px"
	 viewBox="0 0 24 24" style="enable-background:new 0 0 24 24;" xml:space="preserve">
<style type="text/css">
	.st0{fill:none;stroke:#3C5CF9;}
</style>
<g>
	<path class="st0" d="M21,12l-1,7.3c0,1.5-1,2.7-2.2,2.7H6.2C5,22,4,20.8,4,19.3L3,12 M1,9V6.7L3.1,3c0.4-0.6,1-1,1.7-1h14.3
		c0.7,0,1.4,0.4,1.7,1L23,6.7l0,0V9 M3,8h18"/>
	<path class="st0" d="M12,13c-2.2,0-4-1.3-4-3c0,1.7-1.6,3-3.5,3S1,11.7,1,10V8h22v2c0,1.7-1.6,3-3.5,3S16,11.7,16,10
		C16,11.7,14.2,13,12,13z M8,8v3 M16,8v2"/>
</g>
</svg>
