<?xml version="1.0" encoding="utf-8"?>
<!-- Generator: Adobe Illustrator 24.0.3, SVG Export Plug-In . SVG Version: 6.00 Build 0)  -->
<svg version="1.1" id="Capa_1" xmlns="http://www.w3.org/2000/svg" xmlns:xlink="http://www.w3.org/1999/xlink" x="0px" y="0px"
	 viewBox="0 0 24 24" style="enable-background:new 0 0 24 24;" xml:space="preserve">
<style type="text/css">
	.st0{fill:none;stroke:#3C5CF9;}
</style>
<g>
	<g>
		<path class="st0" d="M23,9v10c0,1.7-1.3,3-3,3H4c-1.7,0-3-1.3-3-3V9l0,0"/>
		<path class="st0" d="M3,6h18c1.1,0,2,0.9,2,2v1l0,0c0.7,3.3-3,5-11,5S0.3,12.3,1,9V8C1,6.9,1.9,6,3,6z"/>
	</g>
	<path class="st0" d="M10,2h4c1.1,0,2,0.9,2,2v2l0,0H8V4C8,2.9,8.9,2,10,2z"/>
</g>
</svg>
