<svg width="686" height="270" viewBox="0 0 686 270" fill="none" xmlns="http://www.w3.org/2000/svg">
<rect x="1.25" y="1.25" width="683.5" height="62.5" rx="8.75" stroke="url(#paint0_linear_16_2)" stroke-width="2.5"/>
<rect x="1.25" y="104.25" width="683.5" height="164.5" rx="8.75" stroke="url(#paint1_linear_16_2)" stroke-width="2.5"/>
<rect x="66" y="132.421" width="40" height="110" rx="5" fill="#D9D9D9"/>
<rect x="66" y="132.421" width="40" height="110" rx="5" fill="url(#paint2_linear_16_2)"/>
<path d="M90.96 214.581C91.6 214.581 92.1 214.081 92.1 213.441C92.1 212.921 91.82 212.501 91.32 212.301L88.62 211.121L88.62 204.321L91.24 203.181C91.76 202.961 92.1 202.561 92.1 201.981C92.1 201.321 91.58 200.821 90.92 200.821C90.76 200.821 90.58 200.861 90.4 200.961L78.8 206.161C78.18 206.441 77.8 206.921 77.8 207.621L77.8 207.741C77.8 208.441 78.18 208.941 78.8 209.221L90.4 214.421C90.6 214.521 90.78 214.581 90.96 214.581ZM86.44 210.181L80.78 207.721L86.44 205.261L86.44 210.181ZM92 197.792L92 190.632C92 190.072 91.56 189.632 91.02 189.632C90.46 189.632 90.02 190.072 90.02 190.632L90.02 195.832L83.62 190.192C83.22 189.832 82.92 189.672 82.46 189.672L82.4 189.672C81.84 189.672 81.44 190.172 81.44 190.832L81.44 197.792C81.44 198.352 81.88 198.792 82.44 198.792C82.98 198.792 83.42 198.352 83.42 197.792L83.42 192.812L89.82 198.432C90.22 198.812 90.52 198.972 90.98 198.972L91.02 198.972C91.58 198.972 92 198.472 92 197.792ZM82.54 177.861C81.86 177.861 81.32 178.421 81.32 179.081C81.32 179.761 81.86 180.301 82.54 180.301L87.4 180.301C89.04 180.301 90 181.281 90 182.681C90 184.121 89.08 184.941 87.44 184.941L82.54 184.941C81.86 184.941 81.32 185.481 81.32 186.161C81.32 186.821 81.86 187.361 82.54 187.361L88.16 187.361C90.62 187.361 92.22 185.981 92.22 183.601C92.22 181.961 91.36 180.981 90.36 180.301L90.9 180.301C91.58 180.301 92.1 179.741 92.1 179.081C92.1 178.401 91.56 177.861 90.9 177.861L82.54 177.861ZM90.9 174.839C91.58 174.839 92.1 174.299 92.1 173.639C92.1 172.959 91.56 172.419 90.9 172.419L87.78 172.419C85.28 172.419 83.96 171.239 83.66 169.519C83.56 168.979 83.14 168.559 82.5 168.559C81.8 168.559 81.3 168.999 81.3 169.759C81.3 170.819 82.3 171.859 83.62 172.419L82.54 172.419C81.86 172.419 81.32 172.959 81.32 173.639C81.32 174.319 81.86 174.839 82.54 174.839L90.9 174.839ZM85.98 165.108C84.34 164.888 83.2 163.848 83.2 162.368C83.2 160.768 84.42 159.848 85.98 159.688L85.98 165.108ZM90.84 158.288C90.66 158.108 90.4 157.968 90.1 157.968C89.54 157.968 89.12 158.388 89.12 158.928C89.12 159.208 89.2 159.368 89.34 159.548C89.9 160.228 90.26 161.028 90.26 162.048C90.26 163.608 89.3 164.828 87.58 165.088L87.58 158.468C87.58 157.848 87.1 157.328 86.42 157.328C83.98 157.328 81.22 158.988 81.22 162.348C81.22 165.368 83.7 167.508 86.72 167.508L86.76 167.508C90.02 167.508 92.24 165.148 92.24 162.088C92.24 160.448 91.7 159.248 90.84 158.288Z" fill="white"/>
<path fill-rule="evenodd" clip-rule="evenodd" d="M91.2987 58.2601H92.4975L91.654 57.4083L86.654 52.3588L86.2987 52L85.9435 52.3588L80.9435 57.4083L80.1 58.2601H81.2987L84.1987 58.2601V112.161H81.1987H80L80.8435 113.013L85.8435 118.062L86.1987 118.421L86.554 118.062L91.554 113.013L92.3975 112.161H91.1987H88.6988V58.2601L91.2987 58.2601ZM87.7987 57.2606V57.2601L90.1 57.2601L86.2987 53.4212L82.4975 57.2601L84.2987 57.2601V57.2606H85.1987V113.161H84.6987V113.161H82.3975L86.1987 117L90 113.161H88.1987V113.161H87.6988V57.2606H87.7987Z" fill="url(#paint3_linear_16_2)"/>
<rect x="236" y="132.711" width="40" height="110" rx="5" fill="#D9D9D9"/>
<rect x="236" y="132.711" width="40" height="110" rx="5" fill="url(#paint4_linear_16_2)"/>
<path d="M260.96 208.667C261.6 208.667 262.1 208.167 262.1 207.527C262.1 207.007 261.82 206.587 261.32 206.387L258.62 205.207L258.62 198.407L261.24 197.267C261.76 197.047 262.1 196.647 262.1 196.067C262.1 195.407 261.58 194.907 260.92 194.907C260.76 194.907 260.58 194.947 260.4 195.047L248.8 200.247C248.18 200.527 247.8 201.007 247.8 201.707L247.8 201.827C247.8 202.527 248.18 203.027 248.8 203.307L260.4 208.507C260.6 208.607 260.78 208.667 260.96 208.667ZM256.44 204.267L250.78 201.807L256.44 199.347L256.44 204.267ZM261.18 190.345C261.82 190.105 262.2 189.665 262.2 189.065L262.2 188.825C262.2 188.225 261.82 187.765 261.18 187.545L252.04 184.425L261.18 181.305C261.82 181.085 262.2 180.645 262.2 180.045L262.2 179.805C262.2 179.205 261.8 178.745 261.18 178.525L249.58 174.385C249.44 174.325 249.24 174.265 249.08 174.265C248.42 174.265 247.9 174.825 247.9 175.485C247.9 176.085 248.28 176.505 248.78 176.685L258.42 179.905L248.84 183.065C248.26 183.245 247.86 183.685 247.86 184.305L247.86 184.485C247.86 185.105 248.26 185.525 248.84 185.725L258.42 188.885L248.8 192.105C248.28 192.265 247.9 192.725 247.9 193.325C247.9 194.005 248.42 194.585 249.1 194.585C249.26 194.585 249.44 194.545 249.58 194.485L261.18 190.345ZM262.2 167.007C262.2 164.067 260.64 162.007 258.02 162.007L257.98 162.007C255.66 162.007 254.6 163.527 253.88 166.487C253.24 169.187 252.76 169.827 251.68 169.827L251.64 169.827C250.72 169.827 249.98 168.987 249.98 167.547C249.98 166.447 250.34 165.407 251.04 164.327C251.16 164.127 251.22 163.927 251.22 163.687C251.22 163.047 250.72 162.527 250.08 162.527C249.6 162.527 249.26 162.787 249.1 163.067C248.26 164.327 247.8 165.747 247.8 167.507C247.8 170.287 249.46 172.287 251.86 172.287L251.9 172.287C254.48 172.287 255.36 170.607 256.08 167.627C256.68 165.027 257.22 164.467 258.22 164.467L258.26 164.467C259.3 164.467 260.02 165.427 260.02 166.947C260.02 168.467 259.5 169.707 258.58 170.867C258.46 171.027 258.36 171.247 258.36 171.587C258.36 172.227 258.86 172.747 259.5 172.747C259.9 172.747 260.24 172.547 260.44 172.267C261.6 170.707 262.2 168.907 262.2 167.007Z" fill="white"/>
<path fill-rule="evenodd" clip-rule="evenodd" d="M261.299 58.2601H262.497L261.654 57.4083L256.654 52.3588L256.299 52L255.943 52.3588L250.943 57.4083L250.1 58.2601H251.299L254.199 58.2601V112.161H251.199H250L250.843 113.013L255.843 118.062L256.199 118.421L256.554 118.062L261.554 113.013L262.397 112.161H261.199H258.699V58.2601L261.299 58.2601ZM257.799 57.2606V57.2601L260.1 57.2601L256.299 53.4212L252.497 57.2601L254.299 57.2601V57.2606H255.199V113.161H254.699V113.161H252.397L256.199 117L260 113.161H258.199V113.161H257.699V57.2606H257.799Z" fill="url(#paint5_linear_16_2)"/>
<rect x="406" y="132.711" width="40" height="110" rx="5" fill="#D9D9D9"/>
<rect x="406" y="132.711" width="40" height="110" rx="5" fill="url(#paint6_linear_16_2)"/>
<path d="M432.24 210.082C432.24 205.782 428.94 202.742 425 202.742L424.96 202.742C421.02 202.742 417.76 205.742 417.76 210.042C417.76 214.342 421.06 217.382 425 217.382L425.04 217.382C428.98 217.382 432.24 214.382 432.24 210.082ZM429.96 210.042C429.96 212.822 427.72 214.802 425 214.802L424.96 214.802C422.24 214.802 420.02 212.862 420.02 210.082C420.02 207.302 422.28 205.322 425 205.322L425.04 205.322C427.76 205.322 429.96 207.262 429.96 210.042ZM430.9 200.05C431.58 200.05 432.1 199.51 432.1 198.85C432.1 198.17 431.56 197.63 430.9 197.63L427.78 197.63C425.28 197.63 423.96 196.45 423.66 194.73C423.56 194.19 423.14 193.77 422.5 193.77C421.8 193.77 421.3 194.21 421.3 194.97C421.3 196.03 422.3 197.07 423.62 197.63L422.54 197.63C421.86 197.63 421.32 198.17 421.32 198.85C421.32 199.53 421.86 200.05 422.54 200.05L430.9 200.05ZM432.22 189.256C432.22 187.636 431.54 186.536 430.68 185.816L431.08 185.816C431.62 185.816 432.1 185.336 432.1 184.636C432.1 183.976 431.6 183.456 430.94 183.456L425.74 183.456C424.36 183.456 423.24 183.816 422.48 184.596C421.72 185.336 421.3 186.516 421.3 188.096C421.3 189.476 421.54 190.496 421.92 191.496C422.06 191.856 422.44 192.156 422.88 192.156C423.44 192.156 423.88 191.696 423.88 191.136C423.88 191.016 423.86 190.896 423.82 190.756C423.56 190.096 423.4 189.336 423.4 188.416C423.4 186.716 424.2 185.796 425.7 185.796L425.96 185.796C425.7 186.616 425.52 187.456 425.52 188.636C425.52 191.216 426.64 192.996 428.92 192.996L428.96 192.996C431.08 192.996 432.22 191.236 432.22 189.256ZM430.46 188.576C430.46 189.736 429.88 190.636 428.86 190.636L428.82 190.636C427.72 190.636 427.06 189.716 427.06 188.156C427.06 187.196 427.24 186.376 427.48 185.756L428.2 185.756C429.54 185.756 430.46 186.976 430.46 188.576ZM432.24 175.678C432.24 173.918 431.64 172.778 430.74 171.838C430.56 171.618 430.3 171.498 429.98 171.498C429.4 171.498 428.92 171.958 428.92 172.538C428.92 172.818 429.06 173.058 429.18 173.198C429.74 173.858 430.12 174.598 430.12 175.558C430.12 177.418 428.62 178.718 426.74 178.718L426.7 178.718C424.86 178.718 423.34 177.418 423.34 175.658C423.34 174.698 423.72 174.018 424.24 173.398C424.36 173.238 424.48 172.978 424.48 172.678C424.48 172.058 424 171.558 423.38 171.558C422.98 171.558 422.68 171.778 422.54 171.938C421.76 172.838 421.22 173.978 421.22 175.638C421.22 178.818 423.74 181.138 426.74 181.138L426.78 181.138C429.78 181.138 432.24 178.818 432.24 175.678ZM430.9 168.992C431.58 168.992 432.1 168.452 432.1 167.792C432.1 167.112 431.58 166.572 430.9 166.572L418.5 166.572C417.84 166.572 417.3 167.112 417.3 167.792C417.3 168.472 417.84 168.992 418.5 168.992L430.9 168.992ZM425.98 161.589C424.34 161.369 423.2 160.329 423.2 158.849C423.2 157.249 424.42 156.329 425.98 156.169L425.98 161.589ZM430.84 154.769C430.66 154.589 430.4 154.449 430.1 154.449C429.54 154.449 429.12 154.869 429.12 155.409C429.12 155.689 429.2 155.849 429.34 156.029C429.9 156.709 430.26 157.509 430.26 158.529C430.26 160.089 429.3 161.309 427.58 161.569L427.58 154.949C427.58 154.329 427.1 153.809 426.42 153.809C423.98 153.809 421.22 155.469 421.22 158.829C421.22 161.849 423.7 163.989 426.72 163.989L426.76 163.989C430.02 163.989 432.24 161.629 432.24 158.569C432.24 156.929 431.7 155.729 430.84 154.769Z" fill="white"/>
<path fill-rule="evenodd" clip-rule="evenodd" d="M431.299 58.2601H432.497L431.654 57.4083L426.654 52.3588L426.299 52L425.943 52.3588L420.943 57.4083L420.1 58.2601H421.299L424.199 58.2601V112.161H421.199H420L420.843 113.013L425.843 118.062L426.199 118.421L426.554 118.062L431.554 113.013L432.397 112.161H431.199H428.699V58.2601L431.299 58.2601ZM427.799 57.2606V57.2601L430.1 57.2601L426.299 53.4212L422.497 57.2601L424.299 57.2601V57.2606H425.199V113.161H424.699V113.161H422.397L426.199 117L430 113.161H428.199V113.161H427.699V57.2606H427.799Z" fill="url(#paint7_linear_16_2)"/>
<rect x="576" y="132.711" width="40" height="110" rx="5" fill="#D9D9D9"/>
<rect x="576" y="132.711" width="40" height="110" rx="5" fill="url(#paint8_linear_16_2)"/>
<path d="M602.24 213.862C602.24 211.762 601.52 210.082 600.72 208.882C600.36 208.302 599.86 208.022 599.16 208.022L595.42 208.022C594.72 208.022 594.18 208.562 594.18 209.262L594.18 213.162C594.18 213.762 594.66 214.262 595.26 214.262C595.86 214.262 596.32 213.762 596.32 213.162L596.32 210.402L598.94 210.402C599.58 211.262 600 212.462 600 213.782C600 216.642 597.88 218.542 595 218.542L594.96 218.542C592.28 218.542 590.02 216.582 590.02 214.002C590.02 212.482 590.46 211.502 591.12 210.602C591.26 210.402 591.4 210.162 591.4 209.842C591.4 209.162 590.84 208.622 590.18 208.622C589.7 208.622 589.36 208.882 589.18 209.122C588.26 210.402 587.76 211.802 587.76 213.902C587.76 218.122 591.08 221.122 595 221.122L595.04 221.122C599.12 221.122 602.24 218.242 602.24 213.862ZM602.24 200.079C602.24 196.819 599.74 194.419 596.74 194.419L596.7 194.419C593.68 194.419 591.22 196.799 591.22 200.039C591.22 203.279 593.72 205.679 596.74 205.679L596.78 205.679C599.78 205.679 602.24 203.299 602.24 200.079ZM600.12 200.039C600.12 201.919 598.58 203.259 596.74 203.259L596.7 203.259C594.86 203.259 593.34 202.019 593.34 200.079C593.34 198.179 594.88 196.839 596.74 196.839L596.78 196.839C598.6 196.839 600.12 198.079 600.12 200.039ZM602.24 186.934C602.24 183.674 599.74 181.274 596.74 181.274L596.7 181.274C593.68 181.274 591.22 183.654 591.22 186.894C591.22 190.134 593.72 192.534 596.74 192.534L596.78 192.534C599.78 192.534 602.24 190.154 602.24 186.934ZM600.12 186.894C600.12 188.774 598.58 190.114 596.74 190.114L596.7 190.114C594.86 190.114 593.34 188.874 593.34 186.934C593.34 185.034 594.88 183.694 596.74 183.694L596.78 183.694C598.6 183.694 600.12 184.934 600.12 186.894ZM605.24 174.11C605.24 172.21 604.78 170.73 603.82 169.77C602.94 168.89 601.62 168.43 599.84 168.43L592.54 168.43C591.86 168.43 591.32 168.97 591.32 169.65C591.32 170.31 591.86 170.85 592.52 170.85L593.02 170.85C592.04 171.67 591.22 172.77 591.22 174.55C591.22 177.01 593.06 179.35 596.18 179.35L596.22 179.35C599.32 179.35 601.16 177.03 601.16 174.55C601.16 172.81 600.36 171.71 599.22 170.83L600.04 170.83C602.16 170.83 603.28 172.01 603.28 174.17C603.28 175.39 602.98 176.45 602.44 177.41C602.38 177.53 602.34 177.67 602.34 177.85C602.34 178.41 602.8 178.87 603.34 178.87C603.8 178.87 604.14 178.61 604.3 178.19C604.92 176.91 605.24 175.59 605.24 174.11ZM599.1 173.91C599.1 175.57 597.92 176.91 596.2 176.91L596.16 176.91C594.42 176.91 593.26 175.59 593.26 173.91C593.26 172.23 594.44 170.81 596.16 170.81L596.2 170.81C597.92 170.81 599.1 172.23 599.1 173.91ZM600.9 165.252C601.58 165.252 602.1 164.712 602.1 164.052C602.1 163.372 601.58 162.832 600.9 162.832L588.5 162.832C587.84 162.832 587.3 163.372 587.3 164.052C587.3 164.732 587.84 165.252 588.5 165.252L600.9 165.252ZM595.98 157.849C594.34 157.629 593.2 156.589 593.2 155.109C593.2 153.509 594.42 152.589 595.98 152.429L595.98 157.849ZM600.84 151.029C600.66 150.849 600.4 150.709 600.1 150.709C599.54 150.709 599.12 151.129 599.12 151.669C599.12 151.949 599.2 152.109 599.34 152.289C599.9 152.969 600.26 153.769 600.26 154.789C600.26 156.349 599.3 157.569 597.58 157.829L597.58 151.209C597.58 150.589 597.1 150.069 596.42 150.069C593.98 150.069 591.22 151.729 591.22 155.089C591.22 158.109 593.7 160.249 596.72 160.249L596.76 160.249C600.02 160.249 602.24 157.889 602.24 154.829C602.24 153.189 601.7 151.989 600.84 151.029Z" fill="white"/>
<path fill-rule="evenodd" clip-rule="evenodd" d="M601.299 58.2601H602.497L601.654 57.4083L596.654 52.3588L596.299 52L595.943 52.3588L590.943 57.4083L590.1 58.2601H591.299L594.199 58.2601V112.161H591.199H590L590.843 113.013L595.843 118.062L596.199 118.421L596.554 118.062L601.554 113.013L602.397 112.161H601.199H598.699V58.2601L601.299 58.2601ZM597.799 57.2606V57.2601L600.1 57.2601L596.299 53.4212L592.497 57.2601L594.299 57.2601V57.2606H595.199V113.161H594.699V113.161H592.397L596.199 117L600 113.161H598.199V113.161H597.699V57.2606H597.799Z" fill="url(#paint9_linear_16_2)"/>
<path d="M246.34 40.388C246.34 41.298 247.042 42 247.952 42H253.126C258.846 42 262.798 38.022 262.798 32.9V32.848C262.798 27.726 258.846 23.8 253.126 23.8H247.952C247.042 23.8 246.34 24.502 246.34 25.412V40.388ZM249.538 39.088V26.712H253.126C256.948 26.712 259.444 29.338 259.444 32.9V32.952C259.444 36.514 256.948 39.088 253.126 39.088H249.538ZM278.508 29.702C278.508 28.818 277.78 28.116 276.922 28.116C276.038 28.116 275.336 28.818 275.336 29.702V36.02C275.336 38.152 274.062 39.4 272.242 39.4C270.37 39.4 269.304 38.204 269.304 36.072V29.702C269.304 28.818 268.602 28.116 267.718 28.116C266.86 28.116 266.158 28.818 266.158 29.702V37.008C266.158 40.206 267.952 42.286 271.046 42.286C273.178 42.286 274.452 41.168 275.336 39.868V40.57C275.336 41.454 276.064 42.13 276.922 42.13C277.806 42.13 278.508 41.428 278.508 40.57V29.702ZM290.596 40.57C290.596 41.454 291.272 42.13 292.156 42.13C293.04 42.13 293.742 41.454 293.742 40.57V29.676L298.162 36.306C298.5 36.826 298.916 37.138 299.488 37.138C300.086 37.138 300.502 36.826 300.84 36.306L305.286 29.624V40.544C305.286 41.402 306.014 42.13 306.872 42.13C307.782 42.13 308.484 41.428 308.484 40.544V25.308C308.484 24.424 307.782 23.696 306.872 23.696H306.534C305.884 23.696 305.416 23.982 305.078 24.528L299.54 33.186L294.028 24.554C293.716 24.06 293.248 23.696 292.546 23.696H292.208C291.298 23.696 290.596 24.424 290.596 25.308V40.57ZM324.998 29.702C324.998 28.818 324.27 28.116 323.412 28.116C322.528 28.116 321.826 28.818 321.826 29.702V36.02C321.826 38.152 320.552 39.4 318.732 39.4C316.86 39.4 315.794 38.204 315.794 36.072V29.702C315.794 28.818 315.092 28.116 314.208 28.116C313.35 28.116 312.648 28.818 312.648 29.702V37.008C312.648 40.206 314.442 42.286 317.536 42.286C319.668 42.286 320.942 41.168 321.826 39.868V40.57C321.826 41.454 322.554 42.13 323.412 42.13C324.296 42.13 324.998 41.428 324.998 40.57V29.702ZM329.109 40.57C329.109 41.454 329.811 42.13 330.669 42.13C331.553 42.13 332.255 41.454 332.255 40.57V24.45C332.255 23.592 331.553 22.89 330.669 22.89C329.785 22.89 329.109 23.592 329.109 24.45V40.57ZM340.969 42.234C341.801 42.234 342.451 42.104 343.127 41.87C343.569 41.688 343.959 41.22 343.959 40.648C343.959 39.92 343.335 39.348 342.633 39.348C342.529 39.348 342.217 39.426 341.853 39.426C340.787 39.426 340.163 38.932 340.163 37.71V30.976H342.633C343.387 30.976 344.011 30.378 344.011 29.624C344.011 28.87 343.387 28.272 342.633 28.272H340.163V25.932C340.163 25.074 339.461 24.372 338.603 24.372C337.719 24.372 337.017 25.074 337.017 25.932V28.272H336.497C335.743 28.272 335.145 28.87 335.145 29.624C335.145 30.378 335.743 30.976 336.497 30.976H337.017V38.204C337.017 41.22 338.655 42.234 340.969 42.234ZM347.004 24.736C347.004 25.672 347.784 26.296 348.798 26.296C349.812 26.296 350.592 25.672 350.592 24.736V24.58C350.592 23.644 349.812 23.046 348.798 23.046C347.784 23.046 347.004 23.644 347.004 24.58V24.736ZM347.238 40.57C347.238 41.454 347.94 42.13 348.798 42.13C349.682 42.13 350.384 41.454 350.384 40.57V29.702C350.384 28.818 349.682 28.116 348.798 28.116C347.914 28.116 347.238 28.818 347.238 29.702V40.57ZM355.38 35.578H360.268C361.1 35.578 361.802 34.876 361.802 34.044C361.802 33.186 361.1 32.484 360.268 32.484H355.38C354.548 32.484 353.846 33.186 353.846 34.044C353.846 34.876 354.548 35.578 355.38 35.578ZM373.923 42.312C376.861 42.312 378.811 41.376 380.527 39.868C380.813 39.608 381.047 39.218 381.047 38.724C381.047 37.918 380.345 37.242 379.539 37.242C379.149 37.242 378.811 37.398 378.577 37.606C377.251 38.724 375.951 39.348 374.027 39.348C370.543 39.348 368.021 36.462 368.021 32.9V32.848C368.021 29.286 370.569 26.426 374.027 26.426C375.769 26.426 377.121 27.05 378.369 28.064C378.577 28.22 378.889 28.376 379.331 28.376C380.215 28.376 380.917 27.7 380.917 26.816C380.917 26.244 380.631 25.802 380.293 25.542C378.707 24.32 376.861 23.488 374.053 23.488C368.541 23.488 364.667 27.726 364.667 32.9V32.952C364.667 38.178 368.619 42.312 373.923 42.312ZM384.486 40.57C384.486 41.454 385.188 42.13 386.046 42.13C386.93 42.13 387.632 41.454 387.632 40.57V24.45C387.632 23.592 386.93 22.89 386.046 22.89C385.162 22.89 384.486 23.592 384.486 24.45V40.57ZM398.27 42.312C402.508 42.312 405.628 39.062 405.628 35.162V35.11C405.628 31.184 402.534 27.986 398.322 27.986C394.11 27.986 390.99 31.236 390.99 35.162V35.214C390.99 39.114 394.084 42.312 398.27 42.312ZM398.322 39.556C395.878 39.556 394.136 37.554 394.136 35.162V35.11C394.136 32.718 395.748 30.742 398.27 30.742C400.74 30.742 402.482 32.744 402.482 35.162V35.214C402.482 37.58 400.87 39.556 398.322 39.556ZM421.025 29.702C421.025 28.818 420.297 28.116 419.439 28.116C418.555 28.116 417.853 28.818 417.853 29.702V36.02C417.853 38.152 416.579 39.4 414.759 39.4C412.887 39.4 411.821 38.204 411.821 36.072V29.702C411.821 28.818 411.119 28.116 410.235 28.116C409.377 28.116 408.675 28.818 408.675 29.702V37.008C408.675 40.206 410.469 42.286 413.563 42.286C415.695 42.286 416.969 41.168 417.853 39.868V40.57C417.853 41.454 418.581 42.13 419.439 42.13C420.323 42.13 421.025 41.428 421.025 40.57V29.702ZM438.449 24.45C438.449 23.566 437.747 22.89 436.863 22.89C436.005 22.89 435.303 23.566 435.303 24.45V30.404C434.315 29.104 432.885 27.986 430.623 27.986C427.347 27.986 424.253 30.56 424.253 35.11V35.162C424.253 39.712 427.399 42.286 430.623 42.286C432.859 42.286 434.289 41.142 435.303 39.712V40.57C435.303 41.454 436.005 42.13 436.889 42.13C437.747 42.13 438.449 41.454 438.449 40.57V24.45ZM431.377 30.716C433.483 30.716 435.355 32.458 435.355 35.11V35.162C435.355 37.788 433.483 39.556 431.377 39.556C429.245 39.556 427.425 37.814 427.425 35.162V35.11C427.425 32.38 429.219 30.716 431.377 30.716Z" fill="black"/>
<defs>
<linearGradient id="paint0_linear_16_2" x1="178.117" y1="2.50005" x2="450.376" y2="77.568" gradientUnits="userSpaceOnUse">
<stop stop-color="#24286F"/>
<stop offset="0.234375" stop-color="#692B8C"/>
<stop offset="0.5" stop-color="#3767B1"/>
<stop offset="1" stop-color="#02A7DD"/>
</linearGradient>
<linearGradient id="paint1_linear_16_2" x1="178.117" y1="109.423" x2="467.738" y2="140.505" gradientUnits="userSpaceOnUse">
<stop stop-color="#24286F"/>
<stop offset="0.234375" stop-color="#692B8C"/>
<stop offset="0.5" stop-color="#3767B1"/>
<stop offset="1" stop-color="#02A7DD"/>
</linearGradient>
<linearGradient id="paint2_linear_16_2" x1="36.9999" y1="299.088" x2="5.71024" y2="276.784" gradientUnits="userSpaceOnUse">
<stop stop-color="#24286F"/>
<stop offset="0.25497" stop-color="#692B8C"/>
<stop offset="0.588748" stop-color="#3767B1"/>
<stop offset="1" stop-color="#02A7DD"/>
</linearGradient>
<linearGradient id="paint3_linear_16_2" x1="83.2449" y1="54.5547" x2="88.5819" y2="54.5809" gradientUnits="userSpaceOnUse">
<stop stop-color="#24286F"/>
<stop offset="0.234375" stop-color="#692B8C"/>
<stop offset="0.5" stop-color="#3767B1"/>
<stop offset="1" stop-color="#02A7DD"/>
</linearGradient>
<linearGradient id="paint4_linear_16_2" x1="207" y1="299.377" x2="175.71" y2="277.073" gradientUnits="userSpaceOnUse">
<stop stop-color="#24286F"/>
<stop offset="0.25497" stop-color="#692B8C"/>
<stop offset="0.588748" stop-color="#3767B1"/>
<stop offset="1" stop-color="#02A7DD"/>
</linearGradient>
<linearGradient id="paint5_linear_16_2" x1="253.245" y1="54.5547" x2="258.582" y2="54.5809" gradientUnits="userSpaceOnUse">
<stop stop-color="#24286F"/>
<stop offset="0.234375" stop-color="#692B8C"/>
<stop offset="0.5" stop-color="#3767B1"/>
<stop offset="1" stop-color="#02A7DD"/>
</linearGradient>
<linearGradient id="paint6_linear_16_2" x1="377" y1="299.377" x2="345.71" y2="277.073" gradientUnits="userSpaceOnUse">
<stop stop-color="#24286F"/>
<stop offset="0.25497" stop-color="#692B8C"/>
<stop offset="0.588748" stop-color="#3767B1"/>
<stop offset="1" stop-color="#02A7DD"/>
</linearGradient>
<linearGradient id="paint7_linear_16_2" x1="423.245" y1="54.5547" x2="428.582" y2="54.5809" gradientUnits="userSpaceOnUse">
<stop stop-color="#24286F"/>
<stop offset="0.234375" stop-color="#692B8C"/>
<stop offset="0.5" stop-color="#3767B1"/>
<stop offset="1" stop-color="#02A7DD"/>
</linearGradient>
<linearGradient id="paint8_linear_16_2" x1="547" y1="299.377" x2="515.71" y2="277.073" gradientUnits="userSpaceOnUse">
<stop stop-color="#24286F"/>
<stop offset="0.25497" stop-color="#692B8C"/>
<stop offset="0.588748" stop-color="#3767B1"/>
<stop offset="1" stop-color="#02A7DD"/>
</linearGradient>
<linearGradient id="paint9_linear_16_2" x1="593.245" y1="54.5547" x2="598.582" y2="54.5809" gradientUnits="userSpaceOnUse">
<stop stop-color="#24286F"/>
<stop offset="0.234375" stop-color="#692B8C"/>
<stop offset="0.5" stop-color="#3767B1"/>
<stop offset="1" stop-color="#02A7DD"/>
</linearGradient>
</defs>
</svg>
