<svg width="97" height="111" viewBox="0 0 97 111" fill="none" xmlns="http://www.w3.org/2000/svg">
<path opacity="0.78" d="M96.7 81.7C96.7 82.6 96.1 83.7 95.3 84.2L50 110.4C49.2 110.9 47.9 110.9 47.1 110.4L1.7 84.2C0.900003 83.7 0.300003 82.6 0.300003 81.7V29.2999C0.300003 28.4 0.900003 27.2999 1.7 26.7999L47.1 0.699951C47.9 0.199951 49.2 0.199951 50 0.699951L95.3 26.9C96.1 27.4 96.7 28.5 96.7 29.4V81.7Z" fill="white"/>
<path d="M94.7527 80.526C94.7527 81.4092 94.1639 82.4888 93.3788 82.8814L50.0003 108.006C49.2152 108.398 48.0375 108.398 47.2524 108.006L3.87393 82.9795C3.0888 82.5869 2.49995 81.5074 2.49995 80.6241V30.4739C2.49995 29.5907 3.0888 28.5111 3.87393 28.1185L47.2524 2.99437C48.0375 2.60181 49.2152 2.60181 50.0003 2.99437L93.3788 28.0204C94.1639 28.413 94.7527 29.4925 94.7527 30.3758V80.526Z" fill="url(#paint0_linear_13_693)"/>
<path d="M61.6 46.7001C60.6 46.5001 60.4 46.1001 60.3 45.8001C60.2 44.6001 60 43.1001 59 41.7001C58.1 40.4001 56.7 39.5001 52.8 39.2001C48.7 38.9001 41.4 39.3001 39.7 40.4001C38.1 41.5001 37.6 44.9001 37.6 44.9001C37.5 45.5001 37 46.1001 36.4 46.3001L26 49.1001C25.4 49.3001 24.9 48.9001 24.9 48.3001C24.9 48.3001 24.7 42.9001 25.8 40.7001C26.9 38.5001 28.3 37.0001 36.7 35.4001C45.2 33.7001 57.7 34.3001 64 36.2001C70.2 38.1001 71.7 38.9001 72.5 43.1001C73.1 46.6001 72.9 48.7001 72.9 48.7001C72.8 49.3001 72.3 49.7001 71.7 49.5001L61.6 46.7001Z" fill="white"/>
<path d="M49.3 52.4001C46.5 52.4001 44.3 54.7001 44.3 57.4001C44.3 60.2001 46.5 62.4001 49.3 62.4001C52.1 62.4001 54.3 60.2001 54.3 57.4001C54.4 54.7001 52.1 52.4001 49.3 52.4001ZM62.4 49.9001C62.4 48.6001 61.4 47.6001 60.1 47.6001H57.8V45.0001C57.8 43.4001 56.5 42.1001 54.9 42.1001H43.1C41.5 42.1001 40.2 43.4001 40.2 45.0001V47.6001H37.3C36 47.6001 35 48.6001 35 49.9001L28.6 70.0001C28.6 71.3001 29.6 72.3001 30.9 72.3001H67C68.3 72.3001 69.3 71.3001 69.3 70.0001L62.4 49.9001ZM49.3 64.4001C45.5 64.4001 42.3 61.3001 42.3 57.4001C42.3 53.6001 45.4 50.4001 49.3 50.4001C53.1 50.4001 56.3 53.5001 56.3 57.4001C56.3 61.3001 53.2 64.4001 49.3 64.4001Z" fill="white"/>
<path d="M52.8 39.2C56.7 39.5 58.1 40.4 59 41.7C60 43.1 60.2 44.6 60.3 45.8C60.3 46.1 60.5 46.5 61.6 46.7L71.7 49.6C72.3 49.8 72.8 49.4 72.9 48.8C72.9 48.8 73.1 46.7 72.5 43.2C71.8 39 70.2 38.2 64 36.3C60.4 35.2 54.7 34.5 48.9 34.5V39.3C50.3 39.1 51.7 39.1 52.8 39.2Z" fill="white"/>
<path d="M69.3 70.0001L62.3 49.9001C62.3 48.6001 61.3 47.6001 60 47.6001H57.7V45.0001C57.7 43.4001 56.4 42.1001 54.8 42.1001H48.9V50.5001C49 50.5001 49.2 50.5001 49.3 50.5001C53.1 50.5001 56.3 53.6001 56.3 57.5001C56.3 61.3001 53.2 64.5001 49.3 64.5001C49.2 64.5001 49 64.5001 48.9 64.5001V72.4001H67C68.3 72.3001 69.3 71.3001 69.3 70.0001Z" fill="white"/>
<defs>
<linearGradient id="paint0_linear_13_693" x1="90.6678" y1="126.886" x2="7.53149" y2="109.113" gradientUnits="userSpaceOnUse">
<stop stop-color="#121657"/>
<stop offset="0.428221" stop-color="#692B8C"/>
<stop offset="0.687363" stop-color="#3767B1"/>
<stop offset="1" stop-color="#02A7DD"/>
</linearGradient>
</defs>
</svg>
