<svg width="97" height="111" viewBox="0 0 97 111" fill="none" xmlns="http://www.w3.org/2000/svg">
<path opacity="0.78" d="M96.7 81.7C96.7 82.6 96.1 83.7 95.3 84.2L50 110.4C49.2 110.9 47.9 110.9 47.1 110.4L1.69999 84.2C0.899987 83.7 0.299988 82.6 0.299988 81.7V29.2999C0.299988 28.4 0.899987 27.2999 1.69999 26.7999L47.1 0.699951C47.9 0.199951 49.2 0.199951 50 0.699951L95.3 26.9C96.1 27.4 96.7 28.5 96.7 29.4V81.7Z" fill="white"/>
<path d="M94.7528 80.526C94.7528 81.4092 94.1639 82.4888 93.3788 82.8814L50.0004 108.006C49.2152 108.398 48.0375 108.398 47.2524 108.006L3.87398 82.9795C3.08885 82.5869 2.5 81.5074 2.5 80.6241V30.4739C2.5 29.5907 3.08885 28.5111 3.87398 28.1185L47.2524 2.99437C48.0375 2.60181 49.2152 2.60181 50.0004 2.99437L93.3788 28.0204C94.1639 28.413 94.7528 29.4925 94.7528 30.3758V80.526Z" fill="url(#paint0_linear_13_710)"/>
<path d="M49.1 42.7999C49.1 41.8999 49.1 41.3999 49.1 41.3999H47.9C47.9 41.3999 47.9 42.9999 47.9 45.4999C47.9 47.9999 47.9 51.4999 47.9 55.3999C47.9 63.0999 47.9 69.3999 47.9 69.3999H49.1C49.1 69.3999 49.1 69.3999 49.1 69.2999C49.1 69.2999 49.1 69.2999 49.1 69.1999C49.1 69.1999 49.1 69.1999 49.1 69.0999C49.1 69.0999 49.1 69.0999 49.1 68.9999C49.1 68.9999 49.1 68.9999 49.1 68.8999V68.7999C49.1 68.7999 49.1 68.7999 49.1 68.6999C49.1 68.6999 49.1 68.6999 49.1 68.5999V68.4999C49.1 68.3999 49.1 68.3999 49.1 68.2999C49.1 68.1999 49.1 68.1999 49.1 68.0999C49.1 67.9999 49.1 67.9999 49.1 67.8999C49.1 67.7999 49.1 67.7999 49.1 67.6999C49.1 67.5999 49.1 67.3999 49.1 67.2999C49.1 64.6999 49.1 60.7999 49.1 56.4999V42.7999Z" fill="white"/>
<path d="M48.5 70.2C47.4 70.2 46.3 69.7 45.4 69C44.5 68.2 43.7 67.1 43 65.8C41.7 63.1 40.9 59.6 40.9 55.6C40.9 49.7 42.7 44.6 45.4 42.2C46.3 41.4 47.4 41 48.5 41C49.6 41 50.7 41.5 51.6 42.2C52.5 43 53.3 44.1 54 45.4C55.3 48.1 56.1 51.6 56.1 55.6C56.1 61.5 54.3 66.6 51.6 69C50.7 69.7 49.6 70.2 48.5 70.2ZM46.2 43C45.4 43.6 44.7 44.6 44.1 45.8C42.9 48.2 42.1 51.7 42.1 55.4C42.1 61.1 43.9 66 46.2 67.9C47 68.5 47.7 68.9 48.5 68.9C49.3 68.9 50.1 68.6 50.8 67.9C51.6 67.3 52.3 66.3 52.9 65.1C54.1 62.7 54.9 59.2 54.9 55.5C54.9 49.8 53.1 44.9 50.8 43C50 42.4 49.3 42 48.5 42C47.7 42.1 46.9 42.4 46.2 43Z" fill="white"/>
<path d="M33.9 55.4999C33.9 47.3999 40.5 40.8999 48.5 40.8999C56.6 40.8999 63.2 47.4999 63.2 55.4999C63.2 63.5999 56.6 70.0999 48.5 70.0999C40.4 70.1999 33.9 63.5999 33.9 55.4999ZM39 45.9999C36.6 48.3999 35.1 51.7999 35.1 55.4999C35.1 59.1999 36.6 62.5999 39 64.9999C41.4 67.3999 44.8 68.8999 48.5 68.8999C52.2 68.8999 55.6 67.3999 58 64.9999C60.4 62.5999 61.9 59.1999 61.9 55.4999C61.9 51.7999 60.4 48.3999 58 45.9999C55.6 43.5999 52.2 42.0999 48.5 42.0999C44.8 42.0999 41.4 43.5999 39 45.9999Z" fill="white"/>
<path d="M48.5 56.0999C44.6 56.0999 41.1 56.0999 38.6 56.0999C36.1 56.0999 34.5 56.0999 34.5 56.0999V54.8999C34.5 54.8999 36.1 54.8999 38.6 54.8999C41.1 54.8999 44.6 54.8999 48.5 54.8999C56.2 54.8999 62.5 54.8999 62.5 54.8999V55.4999V56.0999C62.5 56.0999 56.2 56.0999 48.5 56.0999ZM62.5 55.4999V54.8999V55.4999ZM62.5 54.8999V55.4999V54.8999Z" fill="white"/>
<path d="M58.7 48.1C59.1 47.9 59.5 47.7 59.8 47.5C59.6 47.2 59.3 46.8 59.1 46.5C56.7 48 52.8 49 48.5 49C44.7 49 41.3 48.2 38.9 47C38.6 46.9 38.3 46.7 38.1 46.5C37.8 46.8 37.6 47.2 37.4 47.5C40.1 49.2 44.1 50.2 48.6 50.2C52.5 50.2 56.1 49.4 58.7 48.1Z" fill="white"/>
<path d="M48.5 60.7998C44 60.7998 40 61.7998 37.3 63.4998C37.5 63.7998 37.8 64.1998 38 64.4998C38.3 64.2998 38.5 64.1998 38.8 63.9998C41.2 62.7998 44.7001 61.9998 48.4001 61.9998C52.7001 61.9998 56.6 62.9998 59 64.4998C59.3 64.1998 59.5 63.7998 59.7 63.4998C59.3 63.2998 59 63.0998 58.6 62.8998C56.1 61.5998 52.5 60.7998 48.5 60.7998Z" fill="white"/>
<path d="M67.2 36.5L60.6 42.1L67.2 43.1V36.5Z" fill="white"/>
<path d="M68.3 47.7C68.6 48.5 68.9 49.2 69.1 50.1C72.1 61.4 65.4 73.1 54 76.1C42.7 79.1 31 72.4 28 61C25 49.7 31.7 38 43.1 35C51.4 32.8 59.9 35.8 65 42L66.6 40.5C60.9 33.7 51.7 30.5 42.6 32.9C30 36.2 22.5 49 25.9 61.5C29.2 74 42 81.5 54.5 78.1C67 74.8 74.5 62 71.1 49.5C70.9 48.7 70.6 47.9 70.3 47.1L68.3 47.7Z" fill="white"/>
<defs>
<linearGradient id="paint0_linear_13_710" x1="90.6678" y1="126.886" x2="7.53153" y2="109.113" gradientUnits="userSpaceOnUse">
<stop stop-color="#121657"/>
<stop offset="0.428221" stop-color="#692B8C"/>
<stop offset="0.687363" stop-color="#3767B1"/>
<stop offset="1" stop-color="#02A7DD"/>
</linearGradient>
</defs>
</svg>
