<svg width="97" height="111" viewBox="0 0 97 111" fill="none" xmlns="http://www.w3.org/2000/svg">
<path opacity="0.78" d="M96.7 81.7C96.7 82.6 96.1 83.7 95.3 84.2L50 110.4C49.2 110.9 47.9 110.9 47.1 110.4L1.69999 84.2C0.899987 83.7 0.299988 82.6 0.299988 81.7V29.2999C0.299988 28.4 0.899987 27.2999 1.69999 26.7999L47.1 0.699951C47.9 0.199951 49.2 0.199951 50 0.699951L95.3 26.9C96.1 27.4 96.7 28.5 96.7 29.4V81.7Z" fill="white"/>
<path d="M94.7528 80.526C94.7528 81.4092 94.1639 82.4888 93.3788 82.8814L50.0004 108.006C49.2152 108.398 48.0375 108.398 47.2524 108.006L3.87398 82.9795C3.08885 82.5869 2.5 81.5074 2.5 80.6241V30.4739C2.5 29.5907 3.08885 28.5111 3.87398 28.1185L47.2524 2.99437C48.0375 2.60181 49.2152 2.60181 50.0004 2.99437L93.3788 28.0204C94.1639 28.413 94.7528 29.4925 94.7528 30.3758V80.526Z" fill="url(#paint0_linear_13_805)"/>
<path d="M48.5 51.4001C46.6 51.5001 45.2 53.0001 45.2 54.9001C45.3 56.8001 46.8 58.2001 48.7 58.2001C50.6 58.1001 52 56.6001 52 54.7001C52 52.8001 50.4 51.3001 48.5 51.4001ZM48.1 40.9001C40.4 41.2001 34.5 47.6001 34.8 55.3001C35.1 63.0001 41.5 68.9001 49.2 68.6001C56.9 68.3001 62.8 61.9001 62.5 54.2001C62.2 46.6001 55.8 40.7001 48.1 40.9001ZM48.9 61.9001C45 62.0001 41.7 59.0001 41.5 55.1001C41.4 51.2001 44.4 47.9001 48.3 47.7001C52.2 47.6001 55.5 50.6001 55.7 54.5001C55.9 58.5001 52.8 61.8001 48.9 61.9001ZM72.4 61.9001L71.3 64.9001C71.2 65.3001 70.6 65.6001 70.1 65.5001L65.8 64.4001C64.2 67.2001 62 69.6001 59.3 71.3001L60.6 75.4001C60.8 75.9001 60.5 76.4001 60.1 76.6001L57.3 78.0001C56.9 78.2001 56.3 78.1001 56 77.6001L53.6 73.8001C52.2 74.2001 50.8 74.4001 49.4 74.4001C47.8 74.5001 46.3 74.3001 44.8 74.0001L42.6 78.0001C42.3 78.5001 41.8 78.7001 41.4 78.5001L38.4 77.4001C38 77.3001 37.7 76.7001 37.8 76.2001L38.9 71.8001C36.2 70.3001 33.9 68.1001 32.2 65.5001L27.7 67.0001C27.2 67.2001 26.7 66.9001 26.5 66.5001L25.1 63.6001C24.9 63.2001 25 62.6001 25.5 62.4001L29.7 59.7001C29.3 58.4001 29.1 56.9001 29.1 55.5001C29 53.8001 29.2 52.2001 29.5 50.6001L25.1 48.2001C24.6 47.9001 24.4 47.4001 24.6 47.0001L25.7 44.0001C25.8 43.6001 26.4 43.3001 26.9 43.4001L31.8 44.6001C33.3 42.0001 35.5 39.9001 38 38.2001L36.3 33.5001C36.1 33.0001 36.3 32.5001 36.8 32.3001L39.6 30.9001C40 30.7001 40.6 30.8001 40.9 31.3001L43.8 35.7001V35.8001C45.1 35.5001 46.4 35.3001 47.8 35.2001C49.3 35.1001 50.8 35.3001 52.2 35.5001L54.8 30.9001C55.1 30.4001 55.6 30.2001 56 30.5001L58.9 31.7001C59.3 31.8001 59.6 32.4001 59.4 32.9001L58.1 37.8001C60.6 39.2001 62.7 41.1001 64.3 43.4001L68.8 41.9001C69.3 41.7001 69.8 42.0001 70 42.4001L71.4 45.3001C71.6 45.7001 71.5 46.3001 71 46.6001L67.4 49.0001C67.9 50.6001 68.2 52.3001 68.3 54.1001C68.4 55.6001 68.2 57.1001 68 58.5001L72 60.7001C72.4 60.9001 72.6 61.5001 72.4 61.9001Z" fill="white"/>
<path d="M43.9 35.8C43.9 35.7 43.9 35.7 43.9 35.8L40.9 31.3C40.6 30.9 40 30.7 39.6 30.9L36.8 32.3C36.4 32.5 36.2 33 36.3 33.5L38 38.2C35.5 39.8 33.4 42 31.8 44.6L26.9 43.4C26.4 43.3 25.9 43.5 25.7 44L24.6 47C24.4 47.4 24.6 48 25.1 48.2L29.5 50.6C29.2 52.2 29 53.8 29.1 55.5C29.2 56.9 29.4 58.3 29.7 59.7L25.5 62.4C25.1 62.7 24.9 63.2 25.1 63.7L26.5 66.6C26.7 67 27.2 67.3 27.7 67.1L32.3 65.6C34 68.2 36.3 70.4 39 71.9L37.9 76.3C37.8 76.8 38 77.3 38.5 77.5L41.5 78.6C41.9 78.8 42.5 78.6 42.7 78.1L44.9 74C46.1 74.2 47.4 74.4 48.6 74.4V68.7C41.2 68.6 35.1 62.8 34.9 55.4C34.6 47.7 40.6 41.3 48.2 41C48.3 41 48.5 41 48.6 41V35.3C48.4 35.3 48.2 35.3 48 35.3C46.5 35.3 45.2 35.5 43.9 35.8Z" fill="white"/>
<path d="M41.5 55.0999C41.6 58.8999 44.7 61.9 48.5 61.9V58.2C46.7 58.1 45.3 56.7 45.2 54.9C45.1 53 46.6 51.5 48.5 51.4V47.7H48.4C44.4 47.8 41.4 51.0999 41.5 55.0999Z" fill="white"/>
<defs>
<linearGradient id="paint0_linear_13_805" x1="90.6678" y1="126.886" x2="7.53153" y2="109.113" gradientUnits="userSpaceOnUse">
<stop stop-color="#121657"/>
<stop offset="0.428221" stop-color="#692B8C"/>
<stop offset="0.687363" stop-color="#3767B1"/>
<stop offset="1" stop-color="#02A7DD"/>
</linearGradient>
</defs>
</svg>
