<?xml version="1.0" encoding="UTF-8"?>
<svg width="36px" height="36px" viewBox="0 0 36 36" version="1.1" xmlns="http://www.w3.org/2000/svg" xmlns:xlink="http://www.w3.org/1999/xlink">
    <!-- Generator: Sketch 61.2 (89653) - https://sketch.com -->
    <title>Combined Shape</title>
    <desc>Created with Sketch.</desc>
    <defs>
        <linearGradient x1="1.11022302e-14%" y1="100%" x2="100%" y2="0%" id="linearGradient-1">
            <stop stop-color="#00205B" offset="0%"></stop>
            <stop stop-color="#753BBD" offset="33.8431693%"></stop>
            <stop stop-color="#00A9CE" offset="67.6863387%"></stop>
            <stop stop-color="#00A9CE" offset="100%"></stop>
        </linearGradient>
    </defs>
    <g id="Symbols" stroke="none" stroke-width="1" fill="none" fill-rule="evenodd">
        <g id="Atoms-/-du-logo-/-Squircle-Window-Copy" fill="url(#linearGradient-1)">
            <path d="M32.2003561,0 L32.3955996,0.00495460743 C34.4004551,0.106935305 36,1.77034149 36,3.80010339 L36,3.80010339 L36,32.2001264 L35.9950467,32.3953907 C35.893093,34.4004551 34.230118,36 32.2003561,36 L32.2003561,36 L3.80010339,36 L3.60485861,35.9950467 C1.59997613,35.8930927 0,34.2301109 0,32.2001264 L0,32.2001264 L0,3.80010339 L0.00495460743,3.60485861 C0.106935305,1.59997613 1.77034149,0 3.80010339,0 L3.80010339,0 L32.2003561,0 Z M32.1360031,0.965018094 L3.79426237,0.965018094 L3.6221641,0.970191179 C2.1418848,1.0594273 0.965018094,2.29193572 0.965018094,3.79426237 L0.965018094,3.79426237 L0.965018094,32.1357738 C0.965018094,33.6958823 2.23415393,34.9650181 3.79426237,34.9650181 L3.79426237,34.9650181 L32.1360031,34.9650181 L32.3080768,34.959845 C33.7881514,34.8706089 34.9650181,33.6381005 34.9650181,32.1357738 L34.9650181,32.1357738 L34.9650181,3.79426237 L34.959845,3.6221641 C34.8706092,2.1418848 33.638109,0.965018094 32.1360031,0.965018094 L32.1360031,0.965018094 Z M18.0385912,8.08581369 L18.1944453,8.09123414 C19.3269171,8.17028906 20.2194188,9.10426073 20.2194188,10.2469067 L20.2194188,10.2469067 L20.2194188,20.5927747 L20.2245437,20.7733061 C20.319776,22.446102 21.7300893,23.7667723 23.4379594,23.7667723 L23.4379594,23.7667723 L23.6197536,23.7617629 C25.3045118,23.6686647 26.6418351,22.289487 26.6427219,20.5927747 L26.6427219,20.5927747 L26.6427219,17.8457588 L26.6482002,17.6918758 C26.7280956,16.5734094 27.6719285,15.6851252 28.8235495,15.6851252 L28.8235495,15.6851252 L28.9784529,15.6905693 C30.104439,15.7699627 31.0009326,16.7077265 31.0009326,17.8457588 L31.0009326,17.8457588 L31.0034586,20.5927747 L30.9994128,20.8357277 C30.8675815,24.8691162 27.5319612,28.0949301 23.4379594,28.0949301 L23.4379594,28.0949301 L23.1231195,28.0885368 C21.1391387,28.0078254 19.3503716,27.1680304 18.0480062,25.8607977 L18.0480062,25.8607977 L17.8384974,26.0632758 C16.4864807,27.3204967 14.6621548,28.0949301 12.6569049,28.0949301 L12.6569049,28.0949301 L12.4118831,28.0910764 C8.34421877,27.9629425 5.09439088,24.6556974 5.09439088,20.5927747 L5.09439088,20.5927747 L5.09827122,20.3498206 C5.22729154,16.3163975 8.55749992,13.0897006 12.6569049,13.0897006 L12.6569049,13.0897006 L12.9983985,13.097115 C14.017542,13.1414781 14.9869482,13.3838104 15.8607489,13.7941402 L15.8607489,13.7941402 L15.8607489,10.2469067 C15.8607489,9.05232227 16.837609,8.08581369 18.0385912,8.08581369 L18.0385912,8.08581369 Z M29.9524863,26.0112719 C30.5333423,26.0112719 31.0034936,26.474303 31.0034936,27.0503359 C31.0034936,27.6282061 30.5333423,28.0937638 29.9524863,28.0937638 C29.375305,28.0937638 28.9023977,27.6282061 28.9023977,27.0503359 C28.9023977,26.474303 29.375305,26.0112719 29.9524863,26.0112719 Z M29.9524863,26.2191306 C29.487388,26.2191306 29.1120939,26.5886828 29.1120939,27.0503359 C29.1120939,27.5099219 29.487388,27.8865941 29.9524863,27.8865941 C30.1976917,27.8865941 30.4184224,27.7817936 30.572275,27.6153038 L30.3066446,27.6149537 L30.0225825,27.1689187 L29.8482525,27.1689187 L29.8482525,27.6149537 L29.5892962,27.6149537 L29.5892962,26.489301 L30.108055,26.489301 C30.3729351,26.489301 30.5574203,26.648468 30.5574203,26.8356557 C30.5574203,26.994593 30.433866,27.0956514 30.2868984,27.1386012 L30.5826608,27.6038572 C30.7143171,27.4560651 30.7942567,27.2619934 30.7942567,27.0503359 C30.7942567,26.5886828 30.4173549,26.2191306 29.9524863,26.2191306 Z M30.0744866,26.6656939 L29.8482525,26.6656939 L29.8482525,27.0042395 L30.0744866,27.0042395 C30.2127094,27.0042395 30.3066446,26.9277566 30.3066446,26.8356557 C30.3066446,26.7401096 30.2127094,26.6656939 30.0744866,26.6656939 Z M12.6569049,17.4134943 L12.4751344,17.418523 C10.7905987,17.5119753 9.45352011,18.8962841 9.45352011,20.5927747 C9.45352011,22.3500839 10.8878098,23.7667723 12.6569049,23.7667723 L12.6569049,23.7667723 L12.8387212,23.7617629 C14.5236703,23.6686647 15.8607489,22.289487 15.8607489,20.5927747 L15.8607489,20.5927747 L15.8556776,20.412247 C15.7614337,18.7393034 14.3654401,17.4134943 12.6569049,17.4134943 L12.6569049,17.4134943 Z" id="Combined-Shape"></path>
        </g>
    </g>
</svg>